ffmpeg started on 2025-04-30 at 17:20:47
Report written to "D:\Convert\FFMetrics\reports\ssim_report-6.txt"
Log level: 32
Command line:
ffmpeg -hide_banner -nostdin -i "G:\\\xc0\xed\xe8\xec\xe5\\\xce\xed\xe3\xee\xe8\xed\xe3\xe8\\!_37_\xc7\xe8\xec\xe0_2025\\JamClub\\\xcf\xee\xe4\xed\xff\xf2\xe8\xe5 \xf3\xf0\xee\xe2\xed\xff \xe2 \xee\xe4\xe8\xed\xee\xf7\xea\xf3\\\xd2\xc2-2\\JamClub_Ore_dake_Level_Up_na_Ken_Season_2_01_1080p_HEVC.mkv" -i "G:\\\xc0\xed\xe8\xec\xe5\\\xce\xed\xe3\xee\xe8\xed\xe3\xe8\\!_37_\xc7\xe8\xec\xe0_2025\\JamClub\\\xcf\xee\xe4\xed\xff\xf2\xe8\xe5 \xf3\xf0\xee\xe2\xed\xff \xe2 \xee\xe4\xe8\xed\xee\xf7\xea\xf3\\\xd2\xc2-2\\JamClub_Ore_dake_Level_Up_na_Ken_Season_2_01_1080p.mp4" -lavfi "[0:v]settb=AVTB,setpts=PTS-STARTPTS,format=pix_fmts=yuv420p10,fps=24000/1001,scale=1920:1080:flags=bicubic[main];[1:v]settb=AVTB,setpts=PTS-STARTPTS,format=pix_fmts=yuv420p,fps=24000/1001,scale=1920:1080:flags=bicubic[ref];[main][ref]ssim=eof_action=endall:stats_file='D\\:/Convert/FFMetrics/logs/ssim_logfile-6.txt'" -f null -
Input #0, matroska,webm, from 'G:\Аниме\Онгоинги\!_37_Зима_2025\JamClub\Поднятие уровня в одиночку\ТВ-2\JamClub_Ore_dake_Level_Up_na_Ken_Season_2_01_1080p_HEVC.mkv':
  Metadata:
    COMPATIBLE_BRANDS: isomiso2avc1mp41
    MAJOR_BRAND     : isom
    MINOR_VERSION   : 512
    ENCODER         : Lavf61.7.100
  Duration: 00:24:02.26, start: -0.001000, bitrate: 1639 kb/s
  Stream #0:0: Video: hevc (Main 10), yuv420p10le(tv, bt709, progressive), 1920x1080 [SAR 1:1 DAR 16:9], 23.98 fps, 23.98 tbr, 1k tbn (default)
      Metadata:
        HANDLER_NAME    : VideoHandler
        VENDOR_ID       : [0][0][0][0]
        ENCODER         : Lavc61.19.100 libx265
        BPS             : 1440951
        DURATION        : 00:24:02.190708333
        NUMBER_OF_FRAMES: 34578
        NUMBER_OF_BYTES : 259765708
        _STATISTICS_WRITING_APP: mkvpropedit v66.0.0 ('Josie') 64-bit
        _STATISTICS_WRITING_DATE_UTC: 2025-04-30 07:06:44
        _STATISTICS_TAGS: BPS DURATION NUMBER_OF_FRAMES NUMBER_OF_BYTES
  Stream #0:1(eng): Audio: aac (LC), 48000 Hz, stereo, fltp (default)
      Metadata:
        HANDLER_NAME    : SoundHandler
        VENDOR_ID       : [0][0][0][0]
        ENCODER         : Lavc61.19.100 aac
        BPS             : 194776
        DURATION        : 00:24:02.221000000
        NUMBER_OF_FRAMES: 67605
        NUMBER_OF_BYTES : 35113909
        _STATISTICS_WRITING_APP: mkvpropedit v66.0.0 ('Josie') 64-bit
        _STATISTICS_WRITING_DATE_UTC: 2025-04-30 07:06:44
        _STATISTICS_TAGS: BPS DURATION NUMBER_OF_FRAMES NUMBER_OF_BYTES
Input #1, mov,mp4,m4a,3gp,3g2,mj2, from 'G:\Аниме\Онгоинги\!_37_Зима_2025\JamClub\Поднятие уровня в одиночку\ТВ-2\JamClub_Ore_dake_Level_Up_na_Ken_Season_2_01_1080p.mp4':
  Metadata:
    major_brand     : isom
    minor_version   : 512
    compatible_brands: isomiso2avc1mp41
    encoder         : Lavf60.16.100
  Duration: 00:24:02.24, start: 0.000000, bitrate: 4879 kb/s
  Stream #1:0[0x1](und): Video: h264 (High) (avc1 / 0x31637661), yuv420p(progressive), 1920x1080 [SAR 1:1 DAR 16:9], 4681 kb/s, 23.98 fps, 23.98 tbr, 90k tbn (default)
      Metadata:
        handler_name    : VideoHandler
        vendor_id       : [0][0][0][0]
  Stream #1:1[0x2](eng): Audio: aac (LC) (mp4a / 0x6134706D), 48000 Hz, stereo, fltp, 191 kb/s (default)
      Metadata:
        handler_name    : SoundHandler
        vendor_id       : [0][0][0][0]
Stream mapping:
  Stream #0:0 (hevc) -> settb:default
  Stream #1:0 (h264) -> settb:default
  ssim:default -> Stream #0:0 (wrapped_avframe)
  Stream #0:1 -> #0:1 (aac (native) -> pcm_s16le (native))
Output #0, null, to 'pipe:':
  Metadata:
    COMPATIBLE_BRANDS: isomiso2avc1mp41
    MAJOR_BRAND     : isom
    MINOR_VERSION   : 512
    encoder         : Lavf61.7.100
  Stream #0:0: Video: wrapped_avframe, yuv420p10le(tv, bt709, progressive), 1920x1080 [SAR 1:1 DAR 16:9], q=2-31, 200 kb/s, 23.98 fps, 23.98 tbn
      Metadata:
        encoder         : Lavc61.19.100 wrapped_avframe
  Stream #0:1(eng): Audio: pcm_s16le, 48000 Hz, stereo, s16, 1536 kb/s (default)
      Metadata:
        HANDLER_NAME    : SoundHandler
        VENDOR_ID       : [0][0][0][0]
        _STATISTICS_TAGS: BPS DURATION NUMBER_OF_FRAMES NUMBER_OF_BYTES
        BPS             : 194776
        DURATION        : 00:24:02.221000000
        NUMBER_OF_FRAMES: 67605
        NUMBER_OF_BYTES : 35113909
        _STATISTICS_WRITING_APP: mkvpropedit v66.0.0 ('Josie') 64-bit
        _STATISTICS_WRITING_DATE_UTC: 2025-04-30 07:06:44
        encoder         : Lavc61.19.100 pcm_s16le
frame=  110 fps=0.0 q=-0.0 size=N/A time=00:00:04.58 bitrate=N/A speed=9.04x    frame=  269 fps=261 q=-0.0 size=N/A time=00:00:11.21 bitrate=N/A speed=10.9x    frame=  462 fps=300 q=-0.0 size=N/A time=00:00:19.26 bitrate=N/A speed=12.5x    frame=  729 fps=353 q=-0.0 size=N/A time=00:00:30.40 bitrate=N/A speed=14.7x    frame= 1002 fps=390 q=-0.0 size=N/A time=00:00:41.79 bitrate=N/A speed=16.3x    frame= 1272 fps=411 q=-0.0 size=N/A time=00:00:53.05 bitrate=N/A speed=17.1x    frame= 1501 fps=417 q=-0.0 size=N/A time=00:01:02.60 bitrate=N/A speed=17.4x    frame= 1715 fps=416 q=-0.0 size=N/A time=00:01:11.52 bitrate=N/A speed=17.3x    frame= 1940 fps=418 q=-0.0 size=N/A time=00:01:20.91 bitrate=N/A speed=17.5x    frame= 2183 fps=423 q=-0.0 size=N/A time=00:01:31.04 bitrate=N/A speed=17.6x    frame= 2415 fps=426 q=-0.0 size=N/A time=00:01:40.72 bitrate=N/A speed=17.8x    frame= 2597 fps=420 q=-0.0 size=N/A time=00:01:48.31 bitrate=N/A speed=17.5x    frame= 2781 fps=415 q=-0.0 size=N/A time=00:01:55.99 bitrate=N/A speed=17.3x    frame= 2976 fps=412 q=-0.0 size=N/A time=00:02:04.12 bitrate=N/A speed=17.2x    frame= 3175 fps=411 q=-0.0 size=N/A time=00:02:12.42 bitrate=N/A speed=17.1x    frame= 3370 fps=409 q=-0.0 size=N/A time=00:02:20.55 bitrate=N/A speed=17.1x    frame= 3565 fps=407 q=-0.0 size=N/A time=00:02:28.69 bitrate=N/A speed=  17x    frame= 3728 fps=402 q=-0.0 size=N/A time=00:02:35.48 bitrate=N/A speed=16.8x    frame= 3901 fps=398 q=-0.0 size=N/A time=00:02:42.70 bitrate=N/A speed=16.6x    frame= 4108 fps=398 q=-0.0 size=N/A time=00:02:51.33 bitrate=N/A speed=16.6x    frame= 4259 fps=393 q=-0.0 size=N/A time=00:02:57.63 bitrate=N/A speed=16.4x    frame= 4441 fps=391 q=-0.0 size=N/A time=00:03:05.22 bitrate=N/A speed=16.3x    frame= 4591 fps=387 q=-0.0 size=N/A time=00:03:11.48 bitrate=N/A speed=16.1x    frame= 4771 fps=385 q=-0.0 size=N/A time=00:03:18.99 bitrate=N/A speed=16.1x    frame= 5047 fps=391 q=-0.0 size=N/A time=00:03:30.50 bitrate=N/A speed=16.3x    frame= 5274 fps=393 q=-0.0 size=N/A time=00:03:39.96 bitrate=N/A speed=16.4x    frame= 5543 fps=398 q=-0.0 size=N/A time=00:03:51.18 bitrate=N/A speed=16.6x    frame= 5810 fps=402 q=-0.0 size=N/A time=00:04:02.32 bitrate=N/A speed=16.8x    frame= 6057 fps=405 q=-0.0 size=N/A time=00:04:12.62 bitrate=N/A speed=16.9x    frame= 6328 fps=409 q=-0.0 size=N/A time=00:04:23.93 bitrate=N/A speed=  17x    frame= 6605 fps=413 q=-0.0 size=N/A time=00:04:35.48 bitrate=N/A speed=17.2x    frame= 6861 fps=415 q=-0.0 size=N/A time=00:04:46.16 bitrate=N/A speed=17.3x    frame= 7129 fps=418 q=-0.0 size=N/A time=00:04:57.33 bitrate=N/A speed=17.4x    frame= 7401 fps=421 q=-0.0 size=N/A time=00:05:08.68 bitrate=N/A speed=17.6x    frame= 7685 fps=425 q=-0.0 size=N/A time=00:05:20.52 bitrate=N/A speed=17.7x    frame= 7938 fps=427 q=-0.0 size=N/A time=00:05:31.08 bitrate=N/A speed=17.8x    frame= 8203 fps=429 q=-0.0 size=N/A time=00:05:42.13 bitrate=N/A speed=17.9x    frame= 8471 fps=432 q=-0.0 size=N/A time=00:05:53.31 bitrate=N/A speed=  18x    frame= 8732 fps=434 q=-0.0 size=N/A time=00:06:04.19 bitrate=N/A speed=18.1x    frame= 8996 fps=436 q=-0.0 size=N/A time=00:06:15.20 bitrate=N/A speed=18.2x    frame= 9244 fps=437 q=-0.0 size=N/A time=00:06:25.59 bitrate=N/A speed=18.2x    frame= 9501 fps=438 q=-0.0 size=N/A time=00:06:36.27 bitrate=N/A speed=18.3x    frame= 9774 fps=440 q=-0.0 size=N/A time=00:06:47.65 bitrate=N/A speed=18.4x    frame=10035 fps=442 q=-0.0 size=N/A time=00:06:58.54 bitrate=N/A speed=18.4x    frame=10298 fps=443 q=-0.0 size=N/A time=00:07:09.51 bitrate=N/A speed=18.5x    frame=10570 fps=445 q=-0.0 size=N/A time=00:07:20.85 bitrate=N/A speed=18.6x    frame=10831 fps=446 q=-0.0 size=N/A time=00:07:31.74 bitrate=N/A speed=18.6x    frame=11086 fps=447 q=-0.0 size=N/A time=00:07:42.37 bitrate=N/A speed=18.7x    frame=11358 fps=449 q=-0.0 size=N/A time=00:07:53.72 bitrate=N/A speed=18.7x    frame=11630 fps=451 q=-0.0 size=N/A time=00:08:05.06 bitrate=N/A speed=18.8x    frame=11874 fps=451 q=-0.0 size=N/A time=00:08:15.24 bitrate=N/A speed=18.8x    frame=12138 fps=452 q=-0.0 size=N/A time=00:08:26.25 bitrate=N/A speed=18.9x    frame=12399 fps=453 q=-0.0 size=N/A time=00:08:37.14 bitrate=N/A speed=18.9x    frame=12638 fps=453 q=-0.0 size=N/A time=00:08:47.10 bitrate=N/A speed=18.9x    frame=12874 fps=453 q=-0.0 size=N/A time=00:08:56.95 bitrate=N/A speed=18.9x    frame=13110 fps=453 q=-0.0 size=N/A time=00:09:06.79 bitrate=N/A speed=18.9x    frame=13329 fps=453 q=-0.0 size=N/A time=00:09:15.93 bitrate=N/A speed=18.9x    frame=13517 fps=451 q=-0.0 size=N/A time=00:09:23.77 bitrate=N/A speed=18.8x    frame=13690 fps=450 q=-0.0 size=N/A time=00:09:30.98 bitrate=N/A speed=18.8x    frame=13930 fps=450 q=-0.0 size=N/A time=00:09:40.99 bitrate=N/A speed=18.8x    frame=14111 fps=448 q=-0.0 size=N/A time=00:09:48.54 bitrate=N/A speed=18.7x    frame=14270 fps=446 q=-0.0 size=N/A time=00:09:55.17 bitrate=N/A speed=18.6x    frame=14489 fps=445 q=-0.0 size=N/A time=00:10:04.31 bitrate=N/A speed=18.6x    frame=14712 fps=445 q=-0.0 size=N/A time=00:10:13.61 bitrate=N/A speed=18.6x    frame=14931 fps=445 q=-0.0 size=N/A time=00:10:22.74 bitrate=N/A speed=18.6x    frame=15137 fps=444 q=-0.0 size=N/A time=00:10:31.33 bitrate=N/A speed=18.5x    frame=15372 fps=444 q=-0.0 size=N/A time=00:10:41.14 bitrate=N/A speed=18.5x    frame=15638 fps=445 q=-0.0 size=N/A time=00:10:52.23 bitrate=N/A speed=18.6x    frame=15880 fps=446 q=-0.0 size=N/A time=00:11:02.32 bitrate=N/A speed=18.6x    frame=16139 fps=446 q=-0.0 size=N/A time=00:11:13.13 bitrate=N/A speed=18.6x    frame=16366 fps=447 q=-0.0 size=N/A time=00:11:22.59 bitrate=N/A speed=18.6x    frame=16608 fps=447 q=-0.0 size=N/A time=00:11:32.69 bitrate=N/A speed=18.6x    frame=16870 fps=448 q=-0.0 size=N/A time=00:11:43.61 bitrate=N/A speed=18.7x    frame=17145 fps=449 q=-0.0 size=N/A time=00:11:55.08 bitrate=N/A speed=18.7x    frame=17400 fps=449 q=-0.0 size=N/A time=00:12:05.72 bitrate=N/A speed=18.7x    frame=17666 fps=450 q=-0.0 size=N/A time=00:12:16.81 bitrate=N/A speed=18.8x    frame=17923 fps=451 q=-0.0 size=N/A time=00:12:27.53 bitrate=N/A speed=18.8x    frame=18199 fps=452 q=-0.0 size=N/A time=00:12:39.04 bitrate=N/A speed=18.8x    frame=18471 fps=453 q=-0.0 size=N/A time=00:12:50.39 bitrate=N/A speed=18.9x    frame=18709 fps=453 q=-0.0 size=N/A time=00:13:00.32 bitrate=N/A speed=18.9x    frame=18902 fps=452 q=-0.0 size=N/A time=00:13:08.37 bitrate=N/A speed=18.8x    frame=19109 fps=451 q=-0.0 size=N/A time=00:13:17.00 bitrate=N/A speed=18.8x    frame=19352 fps=452 q=-0.0 size=N/A time=00:13:27.13 bitrate=N/A speed=18.8x    frame=19601 fps=452 q=-0.0 size=N/A time=00:13:37.52 bitrate=N/A speed=18.8x    frame=19839 fps=452 q=-0.0 size=N/A time=00:13:47.45 bitrate=N/A speed=18.9x    frame=20068 fps=452 q=-0.0 size=N/A time=00:13:57.00 bitrate=N/A speed=18.8x    frame=20280 fps=451 q=-0.0 size=N/A time=00:14:05.84 bitrate=N/A speed=18.8x    frame=20499 fps=451 q=-0.0 size=N/A time=00:14:14.97 bitrate=N/A speed=18.8x    frame=20710 fps=451 q=-0.0 size=N/A time=00:14:23.77 bitrate=N/A speed=18.8x    frame=20937 fps=451 q=-0.0 size=N/A time=00:14:33.24 bitrate=N/A speed=18.8x    frame=21216 fps=452 q=-0.0 size=N/A time=00:14:44.88 bitrate=N/A speed=18.8x    frame=21478 fps=452 q=-0.0 size=N/A time=00:14:55.81 bitrate=N/A speed=18.9x    frame=21696 fps=452 q=-0.0 size=N/A time=00:15:04.90 bitrate=N/A speed=18.8x    frame=21946 fps=452 q=-0.0 size=N/A time=00:15:15.33 bitrate=N/A speed=18.9x    frame=22177 fps=452 q=-0.0 size=N/A time=00:15:24.96 bitrate=N/A speed=18.9x    frame=22435 fps=453 q=-0.0 size=N/A time=00:15:35.72 bitrate=N/A speed=18.9x    frame=22695 fps=453 q=-0.0 size=N/A time=00:15:46.57 bitrate=N/A speed=18.9x    frame=22902 fps=453 q=-0.0 size=N/A time=00:15:55.20 bitrate=N/A speed=18.9x    frame=23110 fps=452 q=-0.0 size=N/A time=00:16:03.87 bitrate=N/A speed=18.9x    frame=23361 fps=453 q=-0.0 size=N/A time=00:16:14.34 bitrate=N/A speed=18.9x    frame=23596 fps=453 q=-0.0 size=N/A time=00:16:24.14 bitrate=N/A speed=18.9x    frame=23870 fps=453 q=-0.0 size=N/A time=00:16:35.57 bitrate=N/A speed=18.9x    frame=24123 fps=454 q=-0.0 size=N/A time=00:16:46.13 bitrate=N/A speed=18.9x    frame=24372 fps=454 q=-0.0 size=N/A time=00:16:56.51 bitrate=N/A speed=18.9x    frame=24636 fps=455 q=-0.0 size=N/A time=00:17:07.52 bitrate=N/A speed=  19x    frame=24884 fps=455 q=-0.0 size=N/A time=00:17:17.87 bitrate=N/A speed=  19x    frame=25141 fps=455 q=-0.0 size=N/A time=00:17:28.58 bitrate=N/A speed=  19x    frame=25405 fps=456 q=-0.0 size=N/A time=00:17:39.60 bitrate=N/A speed=  19x    frame=25635 fps=456 q=-0.0 size=N/A time=00:17:49.19 bitrate=N/A speed=  19x    frame=25823 fps=455 q=-0.0 size=N/A time=00:17:57.03 bitrate=N/A speed=  19x    frame=26069 fps=455 q=-0.0 size=N/A time=00:18:07.29 bitrate=N/A speed=  19x    frame=26320 fps=455 q=-0.0 size=N/A time=00:18:17.76 bitrate=N/A speed=  19x    frame=26577 fps=456 q=-0.0 size=N/A time=00:18:28.48 bitrate=N/A speed=  19x    frame=26777 fps=455 q=-0.0 size=N/A time=00:18:36.82 bitrate=N/A speed=  19x    frame=26954 fps=454 q=-0.0 size=N/A time=00:18:44.20 bitrate=N/A speed=18.9x    frame=27128 fps=453 q=-0.0 size=N/A time=00:18:51.46 bitrate=N/A speed=18.9x    frame=27323 fps=452 q=-0.0 size=N/A time=00:18:59.59 bitrate=N/A speed=18.9x    frame=27516 fps=452 q=-0.0 size=N/A time=00:19:07.64 bitrate=N/A speed=18.8x    frame=27719 fps=451 q=-0.0 size=N/A time=00:19:16.11 bitrate=N/A speed=18.8x    frame=27910 fps=451 q=-0.0 size=N/A time=00:19:24.07 bitrate=N/A speed=18.8x    frame=28112 fps=450 q=-0.0 size=N/A time=00:19:32.50 bitrate=N/A speed=18.8x    frame=28294 fps=449 q=-0.0 size=N/A time=00:19:40.09 bitrate=N/A speed=18.7x    frame=28489 fps=449 q=-0.0 size=N/A time=00:19:48.22 bitrate=N/A speed=18.7x    frame=28668 fps=448 q=-0.0 size=N/A time=00:19:55.69 bitrate=N/A speed=18.7x    frame=28858 fps=447 q=-0.0 size=N/A time=00:20:03.61 bitrate=N/A speed=18.7x    frame=29043 fps=447 q=-0.0 size=N/A time=00:20:11.33 bitrate=N/A speed=18.6x    frame=29262 fps=446 q=-0.0 size=N/A time=00:20:20.46 bitrate=N/A speed=18.6x    frame=29463 fps=446 q=-0.0 size=N/A time=00:20:28.85 bitrate=N/A speed=18.6x    frame=29649 fps=445 q=-0.0 size=N/A time=00:20:36.61 bitrate=N/A speed=18.6x    frame=29872 fps=445 q=-0.0 size=N/A time=00:20:45.91 bitrate=N/A speed=18.6x    frame=30081 fps=445 q=-0.0 size=N/A time=00:20:54.62 bitrate=N/A speed=18.6x    frame=30284 fps=444 q=-0.0 size=N/A time=00:21:03.09 bitrate=N/A speed=18.5x    frame=30492 fps=444 q=-0.0 size=N/A time=00:21:11.77 bitrate=N/A speed=18.5x    frame=30693 fps=444 q=-0.0 size=N/A time=00:21:20.15 bitrate=N/A speed=18.5x    frame=30913 fps=444 q=-0.0 size=N/A time=00:21:29.32 bitrate=N/A speed=18.5x    frame=31133 fps=444 q=-0.0 size=N/A time=00:21:38.50 bitrate=N/A speed=18.5x    frame=31371 fps=444 q=-0.0 size=N/A time=00:21:48.43 bitrate=N/A speed=18.5x    frame=31582 fps=443 q=-0.0 size=N/A time=00:21:57.23 bitrate=N/A speed=18.5x    frame=31788 fps=443 q=-0.0 size=N/A time=00:22:05.82 bitrate=N/A speed=18.5x    frame=31999 fps=443 q=-0.0 size=N/A time=00:22:14.62 bitrate=N/A speed=18.5x    frame=32191 fps=442 q=-0.0 size=N/A time=00:22:22.63 bitrate=N/A speed=18.5x    frame=32406 fps=442 q=-0.0 size=N/A time=00:22:31.60 bitrate=N/A speed=18.4x    frame=32602 fps=442 q=-0.0 size=N/A time=00:22:39.77 bitrate=N/A speed=18.4x    frame=32825 fps=442 q=-0.0 size=N/A time=00:22:49.07 bitrate=N/A speed=18.4x    frame=33024 fps=441 q=-0.0 size=N/A time=00:22:57.37 bitrate=N/A speed=18.4x    frame=33249 fps=441 q=-0.0 size=N/A time=00:23:06.76 bitrate=N/A speed=18.4x    frame=33456 fps=441 q=-0.0 size=N/A time=00:23:15.39 bitrate=N/A speed=18.4x    frame=33608 fps=440 q=-0.0 size=N/A time=00:23:21.73 bitrate=N/A speed=18.4x    frame=33781 fps=439 q=-0.0 size=N/A time=00:23:28.94 bitrate=N/A speed=18.3x    frame=33972 fps=439 q=-0.0 size=N/A time=00:23:36.91 bitrate=N/A speed=18.3x    frame=34180 fps=439 q=-0.0 size=N/A time=00:23:45.59 bitrate=N/A speed=18.3x    frame=34392 fps=438 q=-0.0 size=N/A time=00:23:54.43 bitrate=N/A speed=18.3x    frame=34564 fps=438 q=-0.0 size=N/A time=00:24:01.60 bitrate=N/A speed=18.3x    [Parsed_ssim_10 @ 0000023fdc4a4080] SSIM Y:0.994013 (22.227731) U:0.993228 (21.693064) V:0.993121 (21.624632) All:0.993733 (22.029658)
[out#0/null @ 0000023fda07fe00] video:14858KiB audio:270420KiB subtitle:0KiB other streams:0KiB global headers:0KiB muxing overhead: unknown
frame=34578 fps=438 q=-0.0 Lsize=N/A time=00:24:02.19 bitrate=N/A speed=18.3x    
